<svg width="298" height="477" viewBox="0 0 298 477" fill="none" xmlns="http://www.w3.org/2000/svg">
<path d="M75.0999 10.7021C76.0079 7.61153 77.8923 4.89846 80.4708 2.96915C83.0493 1.03983 86.1831 -0.00188363 89.403 2.55691e-06H208.595C210.955 0.00179442 213.28 0.564198 215.38 1.64091C217.48 2.71763 219.294 4.27787 220.673 6.19318C222.052 8.1085 222.957 10.3241 223.313 12.6577C223.669 14.9912 223.465 17.3759 222.72 19.6155L169.679 178.864H283.091C285.881 178.862 288.615 179.644 290.983 181.121C293.351 182.598 295.256 184.71 296.483 187.217C297.71 189.724 298.208 192.525 297.921 195.302C297.634 198.078 296.574 200.718 294.861 202.922L86.2742 471.218C84.1374 473.98 81.099 475.903 77.6894 476.653C74.2797 477.402 70.7153 476.93 67.6181 475.319C64.5209 473.707 62.0877 471.059 60.743 467.836C59.3982 464.613 59.2275 461.02 60.2605 457.684L113.927 283.202H14.9078C12.5914 283.203 10.3066 282.664 8.2349 281.628C6.16316 280.591 4.36154 279.086 2.97312 277.231C1.58469 275.376 0.647698 273.223 0.236564 270.942C-0.174571 268.662 -0.0485287 266.317 0.604686 264.093L75.0999 10.7021Z" fill="#F6E05E"/>
</svg>
